<svg width="75" height="75" viewBox="0 0 75 75" fill="none" xmlns="http://www.w3.org/2000/svg">
    <path d="M51.9332 0C52.1077 0 52.2823 0 52.4667 0C52.8948 5.28916 50.876 9.24121 48.4224 12.1031C46.015 14.9453 42.7183 17.7019 37.3863 17.2836C37.0307 12.0702 39.0528 8.41128 41.5031 5.55592C43.7755 2.89488 47.9416 0.52694 51.9332 0Z" fill="black"/>
    <path d="M68.074 55.0519C68.074 55.1046 68.074 55.1507 68.074 55.2001C66.5755 59.7384 64.4381 63.6279 61.8297 67.2374C59.4486 70.5143 56.5307 74.9242 51.3206 74.9242C46.8185 74.9242 43.8282 72.0293 39.2141 71.9502C34.3334 71.8712 31.6493 74.3709 27.1867 74.9999C26.6763 74.9999 26.1658 74.9999 25.6652 74.9999C22.3883 74.5257 19.7437 71.9305 17.8171 69.5922C12.136 62.6827 7.74596 53.7576 6.9292 42.3362C6.9292 41.2165 6.9292 40.1 6.9292 38.9803C7.275 30.8061 11.2468 24.1601 16.5261 20.9392C19.3123 19.2266 23.1425 17.7676 27.4074 18.4197C29.2352 18.703 31.1026 19.3287 32.7394 19.9479C34.2905 20.544 36.2303 21.6011 38.068 21.5451C39.3129 21.5089 40.5512 20.8601 41.806 20.4023C45.4814 19.0751 49.0844 17.5536 53.8334 18.2682C59.5408 19.1311 63.5917 21.667 66.0947 25.5795C61.2666 28.6522 57.4495 33.2827 58.1016 41.1901C58.6813 48.373 62.8573 52.5753 68.074 55.0519Z" fill="black"/>
    </svg>
    