<svg width="19" height="19" viewBox="0 0 19 19" fill="none" xmlns="http://www.w3.org/2000/svg">
    <g clip-path="url(#clip0_225_5306)">
    <path d="M6.55624 15.8703H7.99403C8.18469 15.8703 8.36755 15.7878 8.50237 15.641C8.63719 15.4941 8.71293 15.295 8.71293 15.0873V14.3044C8.71293 14.0968 8.63719 13.8976 8.50237 13.7508C8.36755 13.604 8.18469 13.5215 7.99403 13.5215H6.55624V11.1727H8.71293M11.5885 14.3044C12.7325 14.3044 13.8296 13.8095 14.6385 12.9285C15.4474 12.0475 15.9019 10.8527 15.9019 9.60679C15.9019 8.36091 15.4474 7.16605 14.6385 6.28508C13.8296 5.40411 12.7325 4.90918 11.5885 4.90918H3.68066M4.39956 11.1727V15.8703" stroke="#130400" stroke-width="1.42352" stroke-linecap="round" stroke-linejoin="round"/>
    <path d="M5.83735 7.25791L3.68066 4.90911L5.83735 2.5603" stroke="#130400" stroke-width="1.42352" stroke-linecap="round" stroke-linejoin="round"/>
    </g>
    <defs>
    <clipPath id="clip0_225_5306">
    <rect width="17.2535" height="18.7904" fill="white" transform="translate(0.804688 0.211426)"/>
    </clipPath>
    </defs>
    </svg>