<svg width="68" height="68" viewBox="0 0 68 68" fill="none" xmlns="http://www.w3.org/2000/svg">
    <path d="M64.7562 51.682C64.2111 51.1221 63.4769 50.814 62.6875 50.814H39.3019C38.862 50.814 38.505 51.171 38.505 51.6108V55.8715C38.505 56.6035 37.9089 57.1996 37.1769 57.1996H30.8231C30.0911 57.1996 29.495 56.6035 29.495 55.8715V51.6108C29.495 51.171 29.138 50.814 28.6981 50.814H5.3125C3.70069 50.814 2.39062 52.124 2.39062 53.7358C2.39062 54.5263 2.69875 55.2616 3.24381 55.7907C3.78887 56.3496 4.52306 56.6577 5.3125 56.6577H23.6937C24.0869 60.2437 27.1341 63.0433 30.8231 63.0433H37.1769C40.8627 63.0433 43.9078 60.2479 44.3052 56.6577H62.6875C64.2993 56.6577 65.6094 55.3466 65.6094 53.7358C65.6094 52.9453 65.3012 52.2111 64.7562 51.682Z" fill="#FF7251"/>
    <path d="M35.6756 32.3651C37.9258 32.3651 39.7547 30.5362 39.7547 28.2872C39.7547 26.0382 37.9258 24.2092 35.6756 24.2092C33.4255 24.2092 31.5977 26.0382 31.5977 28.2872C31.5977 30.5362 33.4266 32.3651 35.6756 32.3651Z" fill="#FF7251"/>
    <path d="M12.6503 18.2161C16.4362 18.2161 19.5148 21.2946 19.5148 25.0805C19.5148 25.5622 19.9057 25.9531 20.3874 25.9531C20.8691 25.9531 21.26 25.5622 21.26 25.0805C21.26 21.2958 24.3385 18.2161 28.1233 18.2161C28.605 18.2161 28.9959 17.8251 28.9959 17.3435C28.9959 16.8618 28.605 16.4709 28.1233 16.4709C24.3385 16.4709 21.26 13.3865 21.26 9.59477C21.26 9.11309 20.8691 8.72217 20.3874 8.72217C19.9057 8.72217 19.5148 9.11309 19.5148 9.59477C19.5148 13.3865 16.4362 16.4709 12.6503 16.4709C12.1686 16.4709 11.7777 16.8618 11.7777 17.3435C11.7777 17.8251 12.1686 18.2161 12.6503 18.2161Z" fill="#FF7251"/>
    <path d="M38.882 12.044C42.6668 12.044 45.7453 15.1225 45.7453 18.9084C45.7453 19.3901 46.1362 19.781 46.6179 19.781C47.0996 19.781 47.4905 19.3901 47.4905 18.9084C47.4905 15.1237 50.5691 12.044 54.355 12.044C54.8367 12.044 55.2276 11.653 55.2276 11.1714C55.2276 10.6897 54.8367 10.2988 54.355 10.2988C50.5691 10.2988 47.4905 7.2144 47.4905 3.42265C47.4905 2.94097 47.0996 2.55005 46.6179 2.55005C46.1362 2.55005 45.7453 2.94097 45.7453 3.42265C45.7453 7.2144 42.6668 10.2988 38.882 10.2988C38.4003 10.2988 38.0094 10.6897 38.0094 11.1714C38.0094 11.653 38.4003 12.044 38.882 12.044Z" fill="#FF7251"/>
    <path d="M32.7095 42.9608C29.1132 39.1086 20.8619 31.6519 9.54482 29.8997C8.5803 29.7508 7.61462 30.0568 6.89909 30.7409C6.16727 31.4425 5.81125 32.4209 5.9241 33.4262L6.56168 39.1272L32.7095 42.9608Z" fill="#FF7251"/>
    <path d="M35.2916 42.9607L61.4394 39.1271L62.077 33.4261C62.1899 32.4209 61.8338 31.4424 61.102 30.7408C60.3877 30.0567 59.4185 29.7495 58.4575 29.8996C47.1392 31.6518 38.8879 39.1085 35.2916 42.9607Z" fill="#FF7251"/>
    <path d="M29.9396 51.0201C30.4213 51.0201 30.8122 51.4111 30.8122 51.8927V58.0126H37.188V51.8927C37.188 51.4111 37.579 51.0201 38.0606 51.0201H65.4138C65.7419 51.0201 66.0654 51.0539 66.3795 51.1155V43.8648C66.3795 42.9247 65.9688 42.037 65.2533 41.4285C64.5366 40.8212 63.5883 40.5559 62.6808 40.7095L34.0001 44.9142L5.33342 40.7118C4.40265 40.5617 3.46256 40.8212 2.74587 41.4285C2.02917 42.0358 1.61963 42.9247 1.61963 43.8648V51.1179C1.9326 51.0562 2.25488 51.0201 2.58531 51.0201H29.9396Z" fill="#FF7251"/>
    </svg>