<svg width="75" height="75" viewBox="0 0 75 75" fill="none" xmlns="http://www.w3.org/2000/svg">
    <g clip-path="url(#clip0_53_144)">
    <path d="M22.7368 46.0214L37.5 20.4523L40.2417 20.4993L44.7231 20.672L59.6931 25.8541L70.9095 20.4523C64.7021 8.31153 52.0718 0 37.5 0C24.2633 0 12.6292 6.85855 5.95557 17.2153V17.2405L7.09023 36.4349L22.7368 46.0214Z" fill="#DB4437"/>
    <path d="M22.7369 46.0213L5.95562 17.2404L5.94785 17.2271C2.18423 23.0725 0 30.031 0 37.4999C0 57.615 15.8379 74.0293 35.7236 74.957L49.1246 66.0695L52.2604 46.0263L22.7369 46.0213Z" fill="#0F9D58"/>
    <path d="M70.9096 20.4524H37.5L52.2632 46.0215L52.2604 46.0265L35.7236 74.9572C35.728 74.9573 35.7323 74.9575 35.7367 74.9576C36.3213 74.9847 36.9088 75.0001 37.5002 75.0001C58.2109 75.0001 75.0002 58.2108 75.0002 37.5001C75 31.3612 73.5247 25.567 70.9096 20.4524Z" fill="#FFCD40"/>
    <path d="M37.5 54.5478C46.9152 54.5478 54.5477 46.9153 54.5477 37.5001C54.5477 28.0849 46.9152 20.4524 37.5 20.4524C28.0848 20.4524 20.4523 28.0849 20.4523 37.5001C20.4523 46.9153 28.0848 54.5478 37.5 54.5478Z" fill="#F1F1F1"/>
    <path d="M37.5 51.1381C45.0321 51.1381 51.1381 45.0321 51.1381 37.5C51.1381 29.9678 45.0321 23.8618 37.5 23.8618C29.9678 23.8618 23.8618 29.9678 23.8618 37.5C23.8618 45.0321 29.9678 51.1381 37.5 51.1381Z" fill="#4285F4"/>
    </g>
    <defs>
    <clipPath id="clip0_53_144">
    <rect width="75" height="75" fill="white"/>
    </clipPath>
    </defs>
    </svg>
    