<svg width="197" height="40" viewBox="0 0 197 40" fill="none" xmlns="http://www.w3.org/2000/svg">
    <path
        d="M6.68412 8.91797L8.95644 10.0541C9.37472 10.2368 9.82987 10.3192 10.2856 10.2945C10.7413 10.2698 11.1849 10.1389 11.581 9.91212L13.7284 8.51464C14.0979 8.24645 14.3986 7.89452 14.606 7.48772C14.8133 7.08091 14.9214 6.63076 14.9213 6.17414L14.785 3.61209C14.7353 3.15916 14.5798 2.72418 14.3312 2.34231C14.0825 1.96045 13.7476 1.64232 13.3534 1.41361L11.0811 0.249046C10.6636 0.0641919 10.2085 -0.0197703 9.75255 0.00391869C9.29661 0.0276077 8.8526 0.158266 8.45653 0.385385L6.30924 1.78287C5.94038 2.05174 5.6401 2.40378 5.43286 2.81047C5.22557 3.2171 5.11706 3.66697 5.11621 4.12336L5.25255 6.68541C5.29669 7.14454 5.44956 7.58651 5.69849 7.97473C5.94743 8.36302 6.28532 8.68637 6.68412 8.91797Z"
        fill="#130400" fill-opacity="0.44" />
    <path
        d="M20.391 12.2353L18.1186 11.0707C17.7014 10.888 17.2471 10.8058 16.7923 10.8304C16.3375 10.8551 15.8949 10.986 15.4998 11.2127L13.3297 12.6102C12.9622 12.8803 12.6629 13.2326 12.4558 13.639C12.2486 14.0454 12.1393 14.4946 12.1367 14.9507L12.2731 17.5127C12.3228 17.9657 12.4783 18.4007 12.7269 18.7826C12.9756 19.1644 13.3105 19.4826 13.7046 19.7112L15.977 20.8474C16.3935 21.0322 16.8477 21.1162 17.3027 21.0925C17.7578 21.0688 18.2008 20.9381 18.5958 20.711L20.7488 19.3136C21.1165 19.0422 21.4158 18.6889 21.6228 18.2816C21.83 17.8743 21.9392 17.4243 21.9418 16.9674L21.8055 14.411C21.7534 13.9639 21.5986 13.5348 21.3532 13.1574C21.1078 12.7799 20.7785 12.4644 20.391 12.2353Z"
        fill="#130400" fill-opacity="0.44" />
    <path
        d="M27.4022 23.0405L25.1299 21.9044C24.7124 21.7195 24.2573 21.6355 23.8014 21.6592C23.3454 21.6829 22.9014 21.8135 22.5054 22.0407L20.3581 23.4382C19.9898 23.7076 19.6901 24.0598 19.4829 24.4664C19.2756 24.8729 19.1668 25.3224 19.165 25.7787L19.3014 28.3407C19.3558 28.7864 19.5123 29.2135 19.7586 29.5889C20.0048 29.9643 20.3344 30.2778 20.7216 30.5051L22.994 31.6413C23.4122 31.8239 23.8673 31.9063 24.3231 31.8816C24.7788 31.8569 25.2224 31.726 25.6185 31.4993L27.7715 30.1018C28.1393 29.8323 28.4385 29.48 28.6447 29.0733C28.851 28.6667 28.9586 28.2172 28.9588 27.7613L28.8395 25.2447C28.7905 24.7901 28.6347 24.3534 28.385 23.9704C28.1352 23.5874 27.7985 23.2687 27.4022 23.0405Z"
        fill="#130400" fill-opacity="0.44" />
    <path
        d="M10.6603 16.6782L10.5524 14.6842C10.555 14.2281 10.6642 13.7789 10.8714 13.3726C11.0785 12.9662 11.3778 12.6138 11.7453 12.3437L15.9321 9.6226C16.3271 9.39594 16.7698 9.26499 17.2246 9.24034C17.6795 9.21568 18.1337 9.298 18.5509 9.48058L20.3347 10.3895C20.7522 10.5744 21.2073 10.6584 21.6632 10.6347C22.1192 10.611 22.5632 10.4803 22.9593 10.2532L25.1066 8.85001C25.4751 8.58085 25.7751 8.22875 25.9824 7.82212C26.1896 7.41554 26.2983 6.96591 26.2996 6.50951L26.1632 3.95314C26.1144 3.49919 25.9593 3.06307 25.7106 2.68018C25.4619 2.29724 25.1266 1.97826 24.7317 1.74898L22.4594 0.584415C22.0411 0.401776 21.586 0.319461 21.1302 0.344116C20.6745 0.368771 20.2309 0.499714 19.8348 0.726435L17.642 2.10119C17.2742 2.37069 16.975 2.72302 16.7688 3.12965C16.5625 3.53628 16.4549 3.98575 16.4547 4.44169L16.557 6.43566C16.5568 6.89166 16.4492 7.34113 16.2429 7.74776C16.0366 8.15439 15.7375 8.50672 15.3697 8.77616L11.1829 11.4973C10.7869 11.7244 10.3429 11.8551 9.88696 11.8788C9.43096 11.9025 8.97587 11.8185 8.55838 11.6336L6.78029 10.7304C6.36281 10.5455 5.90772 10.4615 5.45172 10.4852C4.99577 10.5089 4.55182 10.6396 4.15575 10.8667L2.0084 12.2642C1.63955 12.5331 1.33932 12.8851 1.13202 13.2918C0.924729 13.6985 0.816282 14.1483 0.81543 14.6047L0.951768 17.1667C1.00017 17.6209 1.15508 18.0571 1.40379 18.4401C1.65255 18.8231 1.98812 19.142 2.38333 19.3709L4.65566 20.5071C5.07388 20.6897 5.52903 20.7721 5.98475 20.7474C6.44046 20.7228 6.88413 20.5918 7.2802 20.365L9.42755 18.9675C9.79658 18.7078 10.1 18.3657 10.314 17.9683C10.5279 17.571 10.6465 17.1293 10.6603 16.6782Z"
        fill="#130400" fill-opacity="0.44" />
    <path
        d="M33.1503 14.7581C33.0997 14.3046 32.9439 13.8692 32.6954 13.4866C32.4468 13.1039 32.1124 12.7845 31.7187 12.5539L29.4464 11.4178C29.0281 11.2355 28.5729 11.1535 28.1173 11.1781C27.6617 11.2028 27.218 11.3335 26.8219 11.5598L24.6744 12.9573C24.3063 13.2268 24.0066 13.5789 23.7993 13.9855C23.5921 14.392 23.4832 14.8415 23.4815 15.2978L23.5895 17.2974C23.5877 17.7537 23.4789 18.2032 23.2716 18.6097C23.0644 19.0162 22.7647 19.3684 22.3964 19.6379L18.2154 22.3534C17.8193 22.5801 17.3757 22.711 16.92 22.7357C16.4642 22.7603 16.0091 22.678 15.5908 22.4954L13.807 21.5865C13.3898 21.4038 12.9355 21.3215 12.4807 21.3462C12.0259 21.3709 11.5833 21.5018 11.1882 21.7285L9.01811 23.1203C8.65062 23.3904 8.35135 23.7427 8.14417 24.1491C7.93705 24.5554 7.82781 25.0046 7.8252 25.4608L7.96148 28.0228C8.01124 28.4757 8.16667 28.9107 8.41532 29.2926C8.66402 29.6745 8.99891 29.9926 9.3931 30.2213L11.6654 31.3859C12.0819 31.5707 12.5361 31.6546 12.9911 31.6309C13.4462 31.6072 13.8892 31.4765 14.2843 31.2495L16.4373 29.852C16.8045 29.5816 17.1036 29.2292 17.3106 28.8229C17.5178 28.4166 17.6272 27.9675 17.6303 27.5115L17.5224 25.5118C17.5236 25.0555 17.6323 24.6059 17.8395 24.1993C18.0468 23.7927 18.3468 23.4406 18.7153 23.1713L22.8963 20.4503C23.2924 20.2232 23.7364 20.0925 24.1924 20.0688C24.6483 20.0451 25.1034 20.129 25.5209 20.3139L27.299 21.2172C27.7165 21.4021 28.1716 21.486 28.6276 21.4623C29.0835 21.4386 29.5275 21.308 29.9235 21.0809L32.0766 19.6834C32.444 19.4135 32.743 19.0612 32.9492 18.6546C33.1555 18.2481 33.2632 17.7987 33.2638 17.3429L33.1503 14.7581Z"
        fill="#130400" fill-opacity="0.44" />
    <path
        d="M40.7793 4.51699H49.2955L53.2898 20.6827L57.2842 4.51699H66.1772L58.0755 30.4424H48.4665L40.7793 4.51699Z"
        fill="#130400" fill-opacity="0.44" />
    <path
        d="M74.538 30.7439C72.4278 30.7439 70.7823 30.0656 69.6016 28.7091C68.4209 27.3525 67.8305 25.5061 67.8305 23.1698V11.5636H75.8192V22.8306C75.8192 23.4084 75.9699 23.8606 76.2714 24.1872C76.5979 24.4886 77.0125 24.6394 77.5149 24.6394C78.0173 24.6394 78.5323 24.4886 79.0599 24.1872L79.4744 29.425C78.9217 29.8521 78.1932 30.1787 77.2888 30.4048C76.4095 30.6309 75.4926 30.7439 74.538 30.7439ZM71.8248 8.73741C70.6441 8.73741 69.6393 8.37315 68.8103 7.64462C68.0064 6.89097 67.6044 5.97404 67.6044 4.89381C67.6044 3.81358 68.0315 2.90921 68.8856 2.18068C69.7398 1.45215 70.7195 1.08789 71.8248 1.08789C72.9804 1.08789 73.9727 1.46471 74.8018 2.21836C75.6559 2.97201 76.083 3.86382 76.083 4.89381C76.083 5.99916 75.6559 6.9161 74.8018 7.64462C73.9476 8.37315 72.9553 8.73741 71.8248 8.73741Z"
        fill="#130400" fill-opacity="0.44" />
    <path
        d="M81.6688 11.8274H89.6198V15.671C90.1975 14.1888 90.9763 13.096 91.9561 12.3926C92.9609 11.6641 94.1291 11.2998 95.4605 11.2998L96.5533 17.442C94.1668 17.442 92.4082 17.7058 91.2778 18.2334C90.1724 18.7358 89.6198 19.5397 89.6198 20.645V30.4424H81.6688V11.8274Z"
        fill="#130400" fill-opacity="0.44" />
    <path
        d="M108.396 30.7439C106.286 30.7439 104.402 30.3294 102.744 29.5004C101.111 28.6714 99.83 27.5283 98.9005 26.0713C97.9961 24.5891 97.5439 22.8934 97.5439 20.9842C97.5439 19.0749 98.0087 17.3918 98.9382 15.9347C99.8677 14.4526 101.149 13.3095 102.782 12.5056C104.44 11.7018 106.324 11.2998 108.434 11.2998C110.569 11.2998 112.454 11.7143 114.086 12.5433C115.745 13.3472 117.026 14.4777 117.93 15.9347C118.834 17.3918 119.287 19.0749 119.287 20.9842C119.287 22.9185 118.822 24.6268 117.892 26.109C116.988 27.566 115.707 28.7091 114.049 29.5381C112.416 30.342 110.532 30.7439 108.396 30.7439ZM108.472 25.0916C109.502 25.0916 110.343 24.7147 110.997 23.9611C111.675 23.1823 112.014 22.19 112.014 20.9842C112.014 19.7783 111.675 18.7986 110.997 18.045C110.343 17.2662 109.502 16.8768 108.472 16.8768C107.442 16.8768 106.588 17.2662 105.909 18.045C105.256 18.7986 104.93 19.7783 104.93 20.9842C104.93 22.19 105.256 23.1823 105.909 23.9611C106.588 24.7147 107.442 25.0916 108.472 25.0916Z"
        fill="#130400" fill-opacity="0.44" />
    <path
        d="M132.775 39.0717C131.393 39.0717 130.075 38.9335 128.819 38.6572L129.421 33.0802C130.401 33.2309 131.306 33.3063 132.135 33.3063C133.692 33.3063 134.873 32.8416 135.677 31.9121C136.481 31.0077 136.958 29.4753 137.109 27.3148C135.626 29.3999 133.366 30.4424 130.326 30.4424C128.668 30.4424 127.135 30.0154 125.729 29.1612C124.347 28.3071 123.242 27.1515 122.413 25.6945C121.609 24.2374 121.207 22.6422 121.207 20.9088C121.207 19.1503 121.609 17.5425 122.413 16.0855C123.216 14.6033 124.309 13.4351 125.691 12.581C127.098 11.7269 128.63 11.2998 130.288 11.2998C131.821 11.2998 133.152 11.7018 134.282 12.5056C135.438 13.2844 136.192 14.3395 136.543 15.671V11.2998H144.494V25.6568C144.494 30.0531 143.49 33.3817 141.48 35.6426C139.495 37.9287 136.594 39.0717 132.775 39.0717ZM132.775 24.7901C133.78 24.7901 134.647 24.4384 135.375 23.735C136.104 23.0065 136.493 22.1523 136.543 21.1726V20.8711C136.493 19.9165 136.091 19.0749 135.338 18.3464C134.609 17.6179 133.755 17.2536 132.775 17.2536C131.745 17.2536 130.866 17.6304 130.137 18.3841C129.409 19.1126 129.045 19.9919 129.045 21.0219C129.045 22.0518 129.409 22.9437 130.137 23.6973C130.866 24.4258 131.745 24.7901 132.775 24.7901Z"
        fill="#130400" fill-opacity="0.44" />
    <path
        d="M156.64 30.7439C155.007 30.7439 153.475 30.3168 152.043 29.4627C150.636 28.5835 149.505 27.4027 148.651 25.9206C147.797 24.4133 147.37 22.7427 147.37 20.9088C147.37 19.1001 147.797 17.4672 148.651 16.0101C149.505 14.5279 150.648 13.3723 152.08 12.5433C153.512 11.7143 155.032 11.2998 156.64 11.2998C157.946 11.2998 159.152 11.6641 160.257 12.3926C161.388 13.1211 162.242 14.2139 162.82 15.671V11.2998H170.733V30.4424H162.82V26.938C161.564 29.4753 159.504 30.7439 156.64 30.7439ZM159.089 24.7901C160.094 24.7901 160.948 24.4384 161.652 23.735C162.38 23.0065 162.77 22.1523 162.82 21.1726V20.8711C162.77 19.8663 162.368 19.0121 161.614 18.3087C160.885 17.6053 160.044 17.2536 159.089 17.2536C158.034 17.2536 157.13 17.6304 156.376 18.3841C155.648 19.1126 155.283 19.9919 155.283 21.0219C155.283 22.077 155.66 22.9688 156.414 23.6973C157.167 24.4258 158.059 24.7901 159.089 24.7901Z"
        fill="#130400" fill-opacity="0.44" />
    <path
        d="M174.55 11.8274H182.124V15.671C183.581 12.7569 185.892 11.2998 189.058 11.2998C191.469 11.2998 193.353 12.1665 194.71 13.8999C196.092 15.6082 196.782 17.9821 196.782 21.0219V30.4424H188.869V20.2305C188.869 19.1503 188.631 18.3213 188.153 17.7435C187.701 17.1657 187.06 16.8768 186.231 16.8768C185.628 16.8768 185.038 17.0778 184.46 17.4797C183.883 17.8565 183.405 18.4092 183.028 19.1377C182.677 19.8663 182.501 20.6953 182.501 21.6248V30.4424H174.55V11.8274Z"
        fill="#130400" fill-opacity="0.44" />
</svg>
    