<svg width="186" height="31" viewBox="0 0 186 31" fill="none" xmlns="http://www.w3.org/2000/svg">
    <path d="M179.045 25.2608C178.454 24.6019 177.954 23.8667 177.555 23.0746C176.927 21.833 176.057 20.7308 174.999 19.833C173.941 18.9351 172.715 18.2596 171.393 17.8463C170.238 17.4865 169.028 17.3337 167.82 17.395C168.7 17.3444 169.565 17.6304 170.244 18.1956C170.923 18.7608 171.364 19.5635 171.48 20.4429C171.798 22.3429 172.634 24.1165 173.895 25.5655C175.156 27.0146 176.792 28.082 178.62 28.6486C180.711 29.2958 182.951 29.2609 185.021 28.549C182.716 28.1702 180.607 27.0103 179.045 25.2608Z" fill="#130400" fill-opacity="0.44"/>
    <path d="M164.222 17.2067C164.491 18.3798 164.964 19.4973 165.62 20.509C165.141 19.7744 164.957 18.8883 165.103 18.0254C165.25 17.1625 165.717 16.3855 166.413 15.8476C167.889 14.635 168.998 13.0392 169.616 11.238C170.233 9.43679 170.334 7.50089 169.908 5.64589C169.422 3.52382 168.27 1.61001 166.616 0.180664C167.439 2.3645 167.487 4.76185 166.75 6.97605C166.469 7.81197 166.077 8.60729 165.585 9.34142C164.83 10.4947 164.316 11.7865 164.073 13.1404C163.83 14.4943 163.863 15.8829 164.169 17.2241L164.222 17.2067Z" fill="#130400" fill-opacity="0.44"/>
    <path d="M169.373 21.291C168.982 22.0802 168.312 22.6902 167.497 22.9986C166.682 23.307 165.783 23.2911 164.979 22.9539C163.208 22.2795 161.286 22.1189 159.43 22.4898C157.574 22.8607 155.856 23.7487 154.468 25.0544C152.886 26.55 151.812 28.5175 151.401 30.6733C152.874 28.8574 154.912 27.606 157.179 27.1258C158.031 26.9487 158.901 26.8801 159.77 26.9216C161.132 26.9933 162.494 26.787 163.777 26.315C165.059 25.843 166.235 25.1148 167.236 24.1734C168.112 23.3471 168.839 22.3716 169.384 21.291H169.373Z" fill="#130400" fill-opacity="0.44"/>
    <path d="M0.930664 30.5362H5.86705V18.5156C5.86705 17.1841 6.23131 16.1165 6.95984 15.3126C7.68837 14.5087 8.64298 14.1067 9.8237 14.1067C11.0295 14.1067 11.9842 14.5087 12.6876 15.3126C13.4161 16.0913 13.7803 17.159 13.7803 18.5156V30.5362H18.7167V18.5156C18.7167 17.1841 19.081 16.1165 19.8095 15.3126C20.538 14.5087 21.4927 14.1067 22.6734 14.1067C23.8792 14.1067 24.8338 14.5087 25.5372 15.3126C26.2658 16.0913 26.63 17.159 26.63 18.5156V30.5362H31.5664V17.3474C31.5664 15.815 31.2273 14.471 30.549 13.3154C29.8958 12.1347 29.004 11.2178 27.8735 10.5646C26.7431 9.91144 25.4493 9.58486 23.9923 9.58486C22.6357 9.58486 21.4047 9.86119 20.2994 10.4139C19.2192 10.9665 18.3274 11.7956 17.6239 12.9009C17.021 11.896 16.1543 11.0922 15.0239 10.4892C13.9185 9.88632 12.675 9.58486 11.2933 9.58486C10.0121 9.58486 8.86908 9.83607 7.86422 10.3385C6.85935 10.8409 6.09315 11.5946 5.56559 12.5994V10.037H0.930664V30.5362Z" fill="#130400" fill-opacity="0.44"/>
    <path d="M41.9603 30.9884C44.6232 30.9884 46.7585 30.1092 48.3663 28.3507V30.5362H53.0389V16.8952C53.0389 15.4633 52.6746 14.1947 51.9461 13.0893C51.2176 11.984 50.2127 11.1298 48.9315 10.5269C47.6754 9.89888 46.2058 9.58486 44.5227 9.58486C42.4627 9.58486 40.6288 10.0747 39.021 11.0545C37.4133 12.0342 36.3079 13.328 35.705 14.9358L39.737 16.8952C40.1138 15.9657 40.7042 15.2246 41.5081 14.672C42.312 14.0942 43.254 13.8053 44.3343 13.8053C45.4647 13.8053 46.3691 14.1067 47.0474 14.7097C47.7508 15.2875 48.1025 16.016 48.1025 16.8952V17.5735L41.998 18.5533C39.5863 18.9552 37.8027 19.7214 36.6471 20.8519C35.4915 21.9824 34.9137 23.4017 34.9137 25.11C34.9137 26.9187 35.5543 28.3507 36.8355 29.4058C38.1167 30.4609 39.8249 30.9884 41.9603 30.9884ZM40.0385 24.9216C40.0385 23.4896 41.0056 22.5853 42.94 22.2084L48.1025 21.3418V22.1708C48.1025 23.5776 47.6126 24.7708 46.6329 25.7506C45.6783 26.7303 44.4222 27.2202 42.8646 27.2202C42.0356 27.2202 41.3573 27.0192 40.8298 26.6173C40.3022 26.1902 40.0385 25.625 40.0385 24.9216Z" fill="#130400" fill-opacity="0.44"/>
    <path d="M57.6014 30.5362H62.5378V19.1185C62.5378 17.561 62.9648 16.3551 63.819 15.501C64.6982 14.6217 65.8287 14.1821 67.2104 14.1821H68.9815V9.81095H67.7756C66.5195 9.81095 65.4142 10.037 64.4596 10.4892C63.505 10.9414 62.7639 11.7579 62.2363 12.9386V10.037H57.6014V30.5362Z" fill="#130400" fill-opacity="0.44"/>
    <path d="M81.5927 30.7623C82.4217 30.7623 83.2381 30.6995 84.042 30.5739V26.3158C83.5647 26.3912 83.1251 26.4289 82.7232 26.4289C81.5173 26.4289 80.6381 26.1525 80.0854 25.5999C79.5327 25.0472 79.2564 24.2559 79.2564 23.2259V14.4459H83.9667V10.037H79.2564V5.36443H74.32V6.94709C74.32 7.95196 74.0436 8.71816 73.491 9.24572C72.9383 9.77327 72.1595 10.037 71.1547 10.037H70.7778V14.4459H74.32V23.4896C74.32 25.7757 74.948 27.5593 76.2041 28.8405C77.4853 30.1217 79.2815 30.7623 81.5927 30.7623Z" fill="#130400" fill-opacity="0.44"/>
    <path d="M87.8135 7.73842H92.7499V2.46289H87.8135V7.73842ZM87.8135 30.5362H92.7499V10.037H87.8135V30.5362Z" fill="#130400" fill-opacity="0.44"/>
    <path d="M97.3077 30.5362H102.244V18.5156C102.244 17.1841 102.621 16.1165 103.375 15.3126C104.153 14.5087 105.158 14.1067 106.389 14.1067C107.62 14.1067 108.612 14.5087 109.366 15.3126C110.145 16.0913 110.534 17.159 110.534 18.5156V30.5362H115.471V17.3474C115.471 15.815 115.144 14.471 114.491 13.3154C113.838 12.1347 112.921 11.2178 111.74 10.5646C110.584 9.91144 109.253 9.58486 107.746 9.58486C106.465 9.58486 105.309 9.83607 104.279 10.3385C103.274 10.8409 102.495 11.582 101.943 12.5618V10.037H97.3077V30.5362Z" fill="#130400" fill-opacity="0.44"/>
    <path d="M129.668 30.9884C131.653 30.9884 133.462 30.5362 135.095 29.6319C136.727 28.7024 138.034 27.4337 139.014 25.826C139.993 24.1931 140.483 22.3466 140.483 20.2866C140.483 18.2267 139.993 16.3928 139.014 14.785C138.059 13.1772 136.765 11.9086 135.132 10.9791C133.499 10.0496 131.678 9.58486 129.668 9.58486C127.633 9.58486 125.8 10.0496 124.167 10.9791C122.534 11.9086 121.227 13.1772 120.248 14.785C119.293 16.3928 118.816 18.2267 118.816 20.2866C118.816 22.3466 119.293 24.1805 120.248 25.7883C121.227 27.3961 122.534 28.6647 124.167 29.5942C125.825 30.5237 127.659 30.9884 129.668 30.9884ZM129.668 26.4666C128.563 26.4666 127.571 26.2028 126.691 25.6752C125.837 25.1477 125.159 24.4191 124.657 23.4896C124.179 22.535 123.941 21.4674 123.941 20.2866C123.941 19.1059 124.179 18.0508 124.657 17.1213C125.159 16.1918 125.837 15.4633 126.691 14.9358C127.571 14.3831 128.563 14.1067 129.668 14.1067C130.774 14.1067 131.741 14.3831 132.57 14.9358C133.424 15.4633 134.09 16.1918 134.567 17.1213C135.069 18.0508 135.321 19.1059 135.321 20.2866C135.321 21.4674 135.069 22.535 134.567 23.4896C134.09 24.4191 133.424 25.1477 132.57 25.6752C131.741 26.2028 130.774 26.4666 129.668 26.4666Z" fill="#130400" fill-opacity="0.44"/>
    </svg>
    