<svg width="173" height="39" viewBox="0 0 173 39" fill="none" xmlns="http://www.w3.org/2000/svg">
    <path d="M33.1157 14.8266L33.0925 14.8035C33.0906 14.8022 33.0891 14.8004 33.0882 14.7984L18.6065 0.316406L4.12501 14.7981C4.12335 14.7997 4.12242 14.802 4.12073 14.8031L4.09684 14.8262C1.88242 17.0531 0.475871 19.9563 0.10081 23.0743C-0.274252 26.1924 0.403693 29.3463 2.02686 32.0348C3.65004 34.7234 6.1253 36.7922 9.05916 37.9123C11.993 39.0323 15.2171 39.1397 18.2189 38.2169C18.4715 38.1397 18.7414 38.1397 18.9941 38.2169C21.9956 39.1393 25.2195 39.032 28.1532 37.9117C31.0868 36.7915 33.5618 34.7228 35.1849 32.0345C36.808 29.3461 37.486 26.1924 37.1111 23.0745C36.7362 19.9566 35.3298 17.0535 33.1157 14.8266ZM9.27446 24.3763C9.20396 24.4468 9.14805 24.5306 9.10992 24.6226C9.07178 24.7146 9.05215 24.8133 9.05216 24.913C9.07793 27.4689 9.80027 29.9694 11.1414 32.1453C11.1719 32.1947 11.186 32.2525 11.1817 32.3103C11.1773 32.368 11.1548 32.423 11.1174 32.4673C11.0799 32.5117 11.0294 32.5429 10.9731 32.5567C10.9168 32.5706 10.8575 32.5663 10.8038 32.5444C9.79556 32.1203 8.87961 31.5038 8.10719 30.7295C6.52426 29.1462 5.63435 26.9994 5.63292 24.7606C5.63147 22.5218 6.51863 20.3738 8.09955 18.7886L18.6065 8.28264L29.113 18.7886C30.6942 20.3736 31.5816 22.5216 31.5801 24.7606C31.5788 26.9994 30.6887 29.1462 29.1057 30.7295C28.3332 31.5038 27.4174 32.1203 26.4093 32.5444C26.3555 32.5663 26.2962 32.5706 26.2399 32.5567C26.1836 32.5429 26.1331 32.5115 26.0955 32.4673C26.0581 32.423 26.0355 32.368 26.0312 32.3101C26.0269 32.2523 26.0409 32.1945 26.0714 32.1452C27.4129 29.9693 28.1356 27.4689 28.1618 24.913C28.1618 24.8133 28.142 24.7146 28.1036 24.6224C28.0653 24.5302 28.0092 24.4466 27.9385 24.3761L22.9689 19.1049C22.9193 19.0636 22.8571 19.041 22.7926 19.041C22.7282 19.041 22.6658 19.0636 22.6164 19.1049C22.5669 19.146 22.5336 19.2034 22.522 19.2668C22.5104 19.3302 22.5214 19.3955 22.5532 19.4516C24.4833 22.9444 22.8236 27.9613 20.0558 30.7295L20.0412 30.744C19.6592 31.122 19.1435 31.3338 18.6062 31.3336C18.0688 31.3334 17.5532 31.1212 17.1714 30.7431L17.158 30.7295C14.3892 27.9613 12.7303 22.9449 14.6607 19.4523C14.6925 19.3962 14.7035 19.331 14.692 19.2676C14.6804 19.2042 14.647 19.1468 14.5976 19.1056C14.5481 19.0643 14.4858 19.0417 14.4213 19.0417C14.3569 19.0417 14.2945 19.0643 14.2451 19.1056L9.27446 24.3763Z" fill="#130400" fill-opacity="0.44"/>
    <path d="M68.7429 12.4109H73.5358L68.5643 29.0222H63.0867L60.7647 19.1983L58.4129 29.0222H52.9354L47.9639 12.4109H53.0544L55.6444 24.0805L58.2046 12.4109H63.5928L66.153 24.0805L68.7429 12.4109Z" fill="#130400" fill-opacity="0.44"/>
    <path d="M85.9857 23.753C86.7201 23.0386 87.0872 22.0264 87.0872 20.7165C87.0872 19.4067 86.7201 18.4044 85.9857 17.7098C85.2514 16.9954 84.408 16.6381 83.4553 16.6381C82.5027 16.6381 81.6592 16.9954 80.9249 17.7098C80.1906 18.4243 79.8235 19.4365 79.8235 20.7463C79.8235 22.0562 80.1906 23.0683 80.9249 23.7828C81.6592 24.4774 82.5027 24.8247 83.4553 24.8247C84.408 24.8247 85.2514 24.4675 85.9857 23.753ZM76.8465 26.849C75.3779 25.2613 74.6436 23.2271 74.6436 20.7463C74.6436 18.2655 75.3779 16.2313 76.8465 14.6436C78.3151 13.036 80.1013 12.2322 82.205 12.2322C84.3286 12.2322 85.956 13.0162 87.0872 14.584V12.4109H92.1778V29.0222H87.0872V26.6109C85.8567 28.3574 84.2095 29.2306 82.1455 29.2306C80.0815 29.2306 78.3151 28.4367 76.8465 26.849Z" fill="#130400" fill-opacity="0.44"/>
    <path d="M94.5368 12.4109H99.9548L103.736 24.7652L107.516 12.4109H112.934L107.04 29.0222H100.431L94.5368 12.4109Z" fill="#130400" fill-opacity="0.44"/>
    <path d="M122.341 29.2306C119.92 29.2306 117.935 28.4566 116.387 26.9086C114.839 25.3407 114.065 23.2668 114.065 20.6868C114.065 18.1067 114.829 16.0527 116.357 14.5245C117.905 12.9963 119.9 12.2322 122.341 12.2322C124.782 12.2322 126.806 12.9864 128.414 14.4947C130.021 16.003 130.825 18.0968 130.825 20.7761C130.825 21.3516 130.785 21.8875 130.706 22.3836H119.274C119.374 23.1179 119.701 23.7233 120.257 24.1996C120.813 24.656 121.408 24.8843 122.043 24.8843C122.698 24.8843 123.184 24.8247 123.502 24.7056C123.819 24.5667 124.048 24.4377 124.186 24.3186C124.345 24.1797 124.544 23.9614 124.782 23.6637H130.289C129.813 25.3308 128.86 26.6804 127.431 27.7124C126.002 28.7245 124.306 29.2306 122.341 29.2306ZM125.526 19.1983C125.447 18.4243 125.109 17.7991 124.514 17.3228C123.919 16.8267 123.214 16.5786 122.4 16.5786C121.587 16.5786 120.902 16.8267 120.346 17.3228C119.791 17.7991 119.443 18.4243 119.304 19.1983H125.526Z" fill="#130400" fill-opacity="0.44"/>
    <path d="M139.185 12.4109V15.5069C140.376 13.3238 141.964 12.2322 143.948 12.2322V17.4121H142.698C141.527 17.4121 140.644 17.69 140.049 18.2457C139.473 18.8014 139.185 19.7738 139.185 21.1631V29.0222H134.095V12.4109H139.185Z" fill="#130400" fill-opacity="0.44"/>
    <path d="M151.356 10.5354C150.78 11.1109 150.076 11.3987 149.242 11.3987C148.409 11.3987 147.704 11.1109 147.129 10.5354C146.553 9.95984 146.265 9.2553 146.265 8.42175C146.265 7.56836 146.553 6.8539 147.129 6.27835C147.704 5.70281 148.409 5.41504 149.242 5.41504C150.076 5.41504 150.78 5.70281 151.356 6.27835C151.932 6.8539 152.219 7.56836 152.219 8.42175C152.219 9.2553 151.932 9.95984 151.356 10.5354ZM146.712 29.0222V12.4109H151.803V29.0222H146.712Z" fill="#130400" fill-opacity="0.44"/>
    <path d="M166.249 23.8126C166.924 23.0981 167.261 22.0661 167.261 20.7165C167.261 19.367 166.914 18.3449 166.22 17.6503C165.525 16.9358 164.701 16.5786 163.749 16.5786C162.796 16.5786 161.972 16.9358 161.278 17.6503C160.603 18.3449 160.266 19.367 160.266 20.7165C160.266 22.0661 160.613 23.0981 161.308 23.8126C162.022 24.527 162.856 24.8843 163.808 24.8843C164.761 24.8843 165.575 24.527 166.249 23.8126ZM157.586 26.8788C155.919 25.311 155.086 23.2469 155.086 20.6868C155.086 18.1266 155.919 16.0824 157.586 14.5543C159.253 13.0063 161.317 12.2322 163.778 12.2322C166.239 12.2322 168.293 13.0063 169.941 14.5543C171.608 16.0824 172.441 18.1266 172.441 20.6868C172.441 23.2469 171.618 25.311 169.97 26.8788C168.323 28.4467 166.269 29.2306 163.808 29.2306C161.347 29.2306 159.273 28.4467 157.586 26.8788Z" fill="#130400" fill-opacity="0.44"/>
    </svg>
    