<svg width="197" height="42" viewBox="0 0 197 42" fill="none" xmlns="http://www.w3.org/2000/svg">
    <path d="M23.0781 7.20721L24.6347 5.65064C27.6914 2.59394 32.6677 2.51829 35.742 5.55737C36.9069 6.71149 37.6811 8.20153 37.9557 9.81819C38.2303 11.4349 37.9915 13.0969 37.273 14.5709C36.9283 15.2751 36.8122 16.0692 36.9407 16.8426C37.0694 17.6159 37.4363 18.3297 37.9903 18.8844C39.0091 17.8633 39.8165 16.6515 40.3667 15.3182C40.9169 13.9849 41.1991 12.5563 41.1971 11.114C41.1949 9.67166 40.9089 8.24385 40.3549 6.91215C39.8009 5.58043 38.9899 4.37092 37.9683 3.35271C33.6695 -0.921891 26.6916 -0.836828 22.4048 3.44979L7.56807 18.2861L6.34836 17.0664C3.23983 13.9579 3.22001 8.87666 6.38339 5.82337C7.55432 4.69666 9.04612 3.96115 10.6529 3.71837C12.2597 3.47559 13.9021 3.7375 15.3537 4.46795C16.0163 4.80747 16.7691 4.92892 17.5048 4.81497C18.2405 4.70103 18.9214 4.35751 19.4502 3.83347L19.488 3.79585C19.4998 3.78416 19.5091 3.77025 19.5155 3.75492C19.5219 3.7396 19.5252 3.72317 19.5252 3.70658C19.5252 3.68999 19.5219 3.67355 19.5155 3.65824C19.5091 3.64293 19.4998 3.62902 19.488 3.61731C17.4459 1.62654 14.7095 0.508334 11.8576 0.499294C9.00573 0.490255 6.26219 1.59109 4.20755 3.56888C-0.218375 7.84148 -0.202559 14.9464 4.14751 19.2965L18.9798 34.1288L17.4043 35.7044C14.3476 38.7611 9.37103 38.8368 6.29692 35.7977C5.13203 34.6436 4.3579 33.1535 4.08328 31.5369C3.80867 29.9203 4.04733 28.2582 4.76577 26.7841C5.11045 26.08 5.22662 25.2858 5.09806 24.5126C4.96948 23.7392 4.60259 23.0253 4.04863 22.4707C3.02993 23.4918 2.22239 24.7035 1.67216 26.0367C1.12192 27.3701 0.839763 28.7986 0.841808 30.2411C0.843852 31.6834 1.13006 33.1113 1.68407 34.4429C2.23809 35.7747 3.04906 36.9842 4.07065 38.0023C8.36928 42.2771 15.3473 42.1923 19.6341 37.9055L34.4901 23.0493L35.7144 24.2736C38.7711 27.3303 38.8468 32.3066 35.8077 35.3808C34.6536 36.5458 33.1635 37.3198 31.5469 37.5946C29.9303 37.8692 28.2682 37.6304 26.7941 36.9119C26.0898 36.567 25.2952 36.4508 24.5216 36.5797C23.748 36.7084 23.0339 37.0756 22.4793 37.63C23.5004 38.6488 24.7121 39.4564 26.0453 40.0066C27.3787 40.5568 28.8072 40.8391 30.2497 40.8371C31.692 40.8349 33.1199 40.5486 34.4515 39.9946C35.7833 39.4406 36.9928 38.6296 38.0109 37.608C42.2857 33.3094 42.2007 26.3314 37.9141 22.0447L23.0781 7.20721ZM21.1947 31.913L9.78354 20.5018L20.8625 9.42307L32.2736 20.8342L21.1947 31.913Z" fill="#130400" fill-opacity="0.44"/>
    <path d="M60.1403 33.9114C57.8696 33.9114 56.1337 33.2452 54.9326 31.9128C53.741 30.5804 53.0747 28.76 52.934 26.4517L56.5372 25.5509C56.7154 29.1541 57.9165 30.9557 60.1403 30.9557C61.9419 30.9557 62.8427 30.0549 62.8427 28.2533C62.8427 27.7185 62.7676 27.2259 62.6175 26.7755C62.4767 26.3157 62.2562 25.8981 61.956 25.5228C61.6557 25.1381 61.3836 24.8331 61.1396 24.6079C60.8957 24.3734 60.5626 24.0872 60.1403 23.7494L55.6364 20.1462C54.8106 19.4988 54.1491 18.6777 53.6518 17.6831C53.1639 16.6791 52.9199 15.5391 52.9199 14.2629C52.9199 12.4051 53.497 10.9272 54.6511 9.82937C55.8053 8.73154 57.3347 8.18262 59.2395 8.18262C61.2851 8.18262 62.9084 8.68462 64.1094 9.68862C65.3198 10.6832 66.0658 12.0954 66.3473 13.9251C66.3755 14.1222 66.4083 14.3943 66.4458 14.7415L62.8427 15.6423C62.8333 15.4828 62.8098 15.2435 62.7723 14.9245C62.6128 13.7797 62.2515 12.8648 61.6885 12.1799C61.1349 11.4855 60.3186 11.1383 59.2395 11.1383C58.3763 11.1383 57.7101 11.3823 57.2409 11.8702C56.7717 12.3488 56.5372 13.0197 56.5372 13.8829C56.5372 15.2998 57.1377 16.4868 58.3387 17.4439L62.8427 21.047C65.2448 22.9893 66.4458 25.3117 66.4458 28.014C66.4458 29.8625 65.8735 31.3076 64.7287 32.3491C63.5933 33.3906 62.0639 33.9114 60.1403 33.9114Z" fill="#130400" fill-opacity="0.44"/>
    <path d="M73.9759 30.9557C74.9236 30.9557 75.8244 30.7117 76.6782 30.2238V19.0765C76.6407 19.0578 76.5469 19.0015 76.3967 18.9076C76.2466 18.8138 76.1387 18.7528 76.073 18.7247C76.0167 18.6871 75.9182 18.6308 75.7774 18.5558C75.6367 18.4807 75.5194 18.4291 75.4256 18.4009C75.3411 18.3634 75.2285 18.3259 75.0878 18.2883C74.9564 18.2414 74.825 18.2086 74.6937 18.1898C74.5717 18.1711 74.4403 18.1617 74.2996 18.1617C73.9993 18.1617 73.7319 18.232 73.4973 18.3728C73.2721 18.5042 73.0845 18.6637 72.9343 18.8513C72.7842 19.039 72.6528 19.3064 72.5402 19.6536C72.437 20.0008 72.3619 20.3104 72.315 20.5825C72.2681 20.8453 72.2306 21.2018 72.2024 21.6522C72.1743 22.0932 72.1555 22.4357 72.1461 22.6797C72.1461 22.9236 72.1461 23.2661 72.1461 23.7071C72.1461 23.7259 72.1461 23.74 72.1461 23.7494C72.1461 23.9089 72.1461 24.1669 72.1461 24.5235C72.1461 24.8801 72.1461 25.2225 72.1461 25.5509C72.1461 25.8794 72.1461 26.189 72.1461 26.4799C72.1555 27.1086 72.1837 27.6622 72.2306 28.1407C72.2869 28.6099 72.376 29.0743 72.498 29.5341C72.6294 29.9845 72.817 30.3364 73.061 30.5897C73.3143 30.8337 73.6193 30.9557 73.9759 30.9557ZM76.6782 39.0628V32.0394C76.1434 32.5931 75.5898 33.0434 75.0174 33.3906C74.4544 33.7378 73.807 33.9114 73.0751 33.9114C72.3807 33.9114 71.7614 33.7378 71.2172 33.3906C70.6824 33.0341 70.2507 32.579 69.9223 32.0254C69.6033 31.4718 69.3359 30.8196 69.12 30.069C68.9136 29.3089 68.7682 28.563 68.6837 27.8311C68.6087 27.0992 68.5711 26.3391 68.5711 25.5509V22.8064C68.5711 21.99 68.6087 21.2441 68.6837 20.5685C68.7588 19.8929 68.8948 19.2267 69.0919 18.5698C69.2889 17.913 69.547 17.3594 69.866 16.909C70.1944 16.4492 70.6261 16.0833 71.1609 15.8112C71.6957 15.5297 72.315 15.3889 73.0188 15.3889C73.4222 15.3889 73.7976 15.4452 74.1448 15.5578C74.5013 15.661 74.8391 15.8299 75.1581 16.0645C75.4866 16.2991 75.7399 16.5055 75.9182 16.6838C76.1059 16.8527 76.3592 17.1061 76.6782 17.4439V15.6423H80.2814V39.0628H76.6782Z" fill="#130400" fill-opacity="0.44"/>
    <path d="M85.7424 33.9114C84.9542 33.9114 84.3209 33.6346 83.8423 33.081C83.3638 32.518 83.1245 31.8236 83.1245 30.9979V15.6423H86.7276V29.9001C86.7276 30.2754 86.8402 30.5804 87.0654 30.8149C87.3 31.0495 87.6003 31.1668 87.9662 31.1668C88.1633 31.1668 88.3556 31.1433 88.5433 31.0964C88.731 31.0495 88.9139 30.9698 89.0922 30.8572C89.2799 30.7352 89.4253 30.6413 89.5285 30.5757C89.6318 30.5006 89.7772 30.3786 89.9649 30.2097C90.1619 30.0408 90.2839 29.9376 90.3308 29.9001V15.6423H93.934V33.658H90.3308V31.7157C89.9742 32.0254 89.7115 32.2506 89.5426 32.3913C89.3831 32.5321 89.1344 32.7244 88.7966 32.9684C88.4589 33.203 88.1586 33.3766 87.8959 33.4892C87.6425 33.5924 87.3235 33.6862 86.9388 33.7706C86.5541 33.8645 86.1553 33.9114 85.7424 33.9114Z" fill="#130400" fill-opacity="0.44"/>
    <path d="M102.013 30.9557C102.266 30.9557 102.51 30.8806 102.745 30.7305C102.989 30.5804 103.172 30.4349 103.294 30.2942C103.416 30.1534 103.566 29.9658 103.744 29.7312C103.772 29.6843 103.796 29.6514 103.814 29.6326V24.6502C103.664 24.7534 103.416 24.9129 103.069 25.1287C102.721 25.3445 102.445 25.5228 102.238 25.6635C102.032 25.7949 101.783 25.9826 101.492 26.2265C101.201 26.4611 100.976 26.691 100.817 26.9162C100.657 27.132 100.516 27.3994 100.394 27.7185C100.272 28.0375 100.211 28.3706 100.211 28.7178C100.211 30.2097 100.812 30.9557 102.013 30.9557ZM100.211 33.9114C99.2073 33.9114 98.3535 33.4798 97.6497 32.6165C96.9554 31.7439 96.6082 30.7633 96.6082 29.6749C96.6082 28.8022 96.7536 28.0094 97.0445 27.2962C97.3448 26.5831 97.6591 26.0154 97.9875 25.5932C98.3159 25.1615 98.8648 24.7205 99.6343 24.2701C100.404 23.8104 100.985 23.496 101.38 23.3271C101.774 23.1582 102.459 22.8814 103.434 22.4967C103.603 22.431 103.73 22.3794 103.814 22.3419V21.047C103.814 20.1368 103.688 19.4331 103.434 18.9358C103.181 18.4291 102.707 18.1757 102.013 18.1757C101.394 18.1757 100.948 18.3916 100.676 18.8232C100.413 19.2454 100.263 19.8319 100.225 20.5825C100.216 20.6858 100.211 20.8406 100.211 21.047H96.6082C96.6269 19.3205 97.1102 17.9459 98.0579 16.9231C99.0056 15.9003 100.324 15.3889 102.013 15.3889C103.693 15.3889 105.011 15.9097 105.968 16.9512C106.934 17.9834 107.418 19.3486 107.418 21.047V29.1541C107.418 31.0307 107.572 32.5321 107.882 33.658H104.293L103.814 30.9557C103.627 31.331 103.472 31.6219 103.35 31.8283C103.237 32.0348 103.069 32.2928 102.843 32.6024C102.618 32.9027 102.393 33.1373 102.168 33.3062C101.943 33.4657 101.661 33.6064 101.323 33.7284C100.985 33.8504 100.615 33.9114 100.211 33.9114Z" fill="#130400" fill-opacity="0.44"/>
    <path d="M110.528 33.658V15.6423H114.131V18.0491C114.497 17.3359 115.027 16.7167 115.722 16.1912C116.426 15.6563 117.204 15.3889 118.058 15.3889C118.086 15.3889 118.279 15.4077 118.635 15.4452V19.4284C117.969 19.1657 117.303 19.0343 116.637 19.0343C115.886 19.0343 115.281 19.2595 114.821 19.7099C114.361 20.1603 114.131 20.7561 114.131 21.4974V33.658H110.528Z" fill="#130400" fill-opacity="0.44"/>
    <path d="M125.25 33.9114C124.378 33.9114 123.618 33.7613 122.97 33.461C122.332 33.1607 121.821 32.7713 121.436 32.2928C121.061 31.8049 120.756 31.1856 120.521 30.4349C120.287 29.6749 120.123 28.9195 120.029 28.1689C119.944 27.4088 119.893 26.5268 119.874 25.5228C119.846 24.7346 119.846 23.9464 119.874 23.1582C119.902 22.2199 119.963 21.3895 120.057 20.667C120.16 19.9351 120.334 19.2267 120.578 18.5417C120.822 17.8567 121.136 17.2937 121.521 16.8527C121.915 16.4117 122.426 16.0598 123.055 15.7971C123.693 15.525 124.434 15.3889 125.279 15.3889C126.048 15.3889 126.724 15.4921 127.305 15.6986C127.897 15.8956 128.384 16.2006 128.769 16.6134C129.163 17.0169 129.487 17.4673 129.74 17.9646C130.003 18.4619 130.2 19.0671 130.331 19.7803C130.463 20.484 130.552 21.1784 130.599 21.8633C130.655 22.5483 130.683 23.3365 130.683 24.2279V24.6502H123.477V25.5509C123.477 25.6729 123.477 25.8653 123.477 26.128C123.458 26.4752 123.454 26.8365 123.463 27.2118C123.482 27.5777 123.5 27.939 123.519 28.2955C123.538 28.6521 123.59 28.9946 123.674 29.323C123.759 29.642 123.862 29.9235 123.984 30.1675C124.106 30.4115 124.275 30.6038 124.49 30.7446C124.716 30.8853 124.978 30.9557 125.279 30.9557C125.654 30.9557 125.964 30.8853 126.208 30.7446C126.451 30.5944 126.63 30.3739 126.742 30.083C126.864 29.7922 126.949 29.5013 126.996 29.2104C127.043 28.9195 127.071 28.5536 127.08 28.1126V27.3525H130.655V28.0703C130.571 29.9939 130.097 31.4483 129.234 32.4335C128.37 33.4188 127.043 33.9114 125.25 33.9114ZM123.477 22.8486H127.052V21.7648C127.043 21.2863 127.014 20.8687 126.968 20.5122C126.921 20.1556 126.836 19.799 126.714 19.4425C126.602 19.0859 126.423 18.8138 126.179 18.6261C125.935 18.4385 125.635 18.3446 125.279 18.3446C124.913 18.3446 124.603 18.4432 124.35 18.6402C124.106 18.8373 123.923 19.1234 123.801 19.4988C123.688 19.8647 123.608 20.226 123.561 20.5825C123.515 20.9391 123.486 21.366 123.477 21.8633V22.8486Z" fill="#130400" fill-opacity="0.44"/>
    <path d="M140.029 33.9114C137.758 33.9114 136.022 33.2452 134.821 31.9128C133.63 30.5804 132.963 28.76 132.823 26.4517L136.426 25.5509C136.604 29.1541 137.805 30.9557 140.029 30.9557C141.831 30.9557 142.731 30.0549 142.731 28.2533C142.731 27.7185 142.656 27.2259 142.506 26.7755C142.365 26.3157 142.145 25.8981 141.845 25.5228C141.544 25.1381 141.272 24.8331 141.028 24.6079C140.784 24.3734 140.451 24.0872 140.029 23.7494L135.525 20.1462C134.699 19.4988 134.038 18.6777 133.541 17.6831C133.053 16.6791 132.809 15.5391 132.809 14.2629C132.809 12.4051 133.386 10.9272 134.54 9.82937C135.694 8.73154 137.223 8.18262 139.128 8.18262C141.174 8.18262 142.797 8.68462 143.998 9.68862C145.209 10.6832 145.955 12.0954 146.236 13.9251C146.264 14.1222 146.297 14.3943 146.335 14.7415L142.731 15.6423C142.722 15.4828 142.699 15.2435 142.661 14.9245C142.501 13.7797 142.14 12.8648 141.577 12.1799C141.024 11.4855 140.207 11.1383 139.128 11.1383C138.265 11.1383 137.599 11.3823 137.13 11.8702C136.66 12.3488 136.426 13.0197 136.426 13.8829C136.426 15.2998 137.026 16.4868 138.227 17.4439L142.731 21.047C145.133 22.9893 146.335 25.3117 146.335 28.014C146.335 29.8625 145.762 31.3076 144.617 32.3491C143.482 33.3906 141.953 33.9114 140.029 33.9114Z" fill="#130400" fill-opacity="0.44"/>
    <path d="M153.808 33.9114C152.391 33.9114 151.359 33.5501 150.712 32.8276C150.074 32.1051 149.745 31.012 149.727 29.5482V18.3446H147.925V15.6423H149.727V9.33675H153.33V15.6423H156.032V18.3446H153.33V28.8585C153.33 29.581 153.428 30.1112 153.625 30.449C153.822 30.7868 154.221 30.9557 154.822 30.9557C155.084 30.9557 155.488 30.9088 156.032 30.8149V33.7425C155.131 33.8551 154.39 33.9114 153.808 33.9114Z" fill="#130400" fill-opacity="0.44"/>
    <path d="M167.77 32.2224C166.935 33.3484 165.551 33.9114 163.618 33.9114C161.685 33.9114 160.301 33.3484 159.466 32.2224C158.631 31.0964 158.214 29.4731 158.214 27.3525V21.9478C158.214 19.8272 158.631 18.2039 159.466 17.0779C160.301 15.9519 161.685 15.3889 163.618 15.3889C165.551 15.3889 166.935 15.9519 167.77 17.0779C168.606 18.2039 169.023 19.8272 169.023 21.9478V27.3525C169.023 29.4731 168.606 31.0964 167.77 32.2224ZM162.943 30.8431C163.14 30.9181 163.365 30.9557 163.618 30.9557C163.872 30.9557 164.092 30.9181 164.28 30.8431C164.477 30.768 164.636 30.6789 164.758 30.5757C164.89 30.4631 164.998 30.3035 165.082 30.0971C165.167 29.8813 165.232 29.6936 165.279 29.5341C165.326 29.3746 165.359 29.1447 165.378 28.8445C165.397 28.5442 165.406 28.3096 165.406 28.1407C165.415 27.9624 165.42 27.6997 165.42 27.3525V21.9478C165.42 21.6006 165.415 21.3426 165.406 21.1737C165.406 20.9954 165.397 20.7561 165.378 20.4559C165.359 20.1556 165.326 19.9257 165.279 19.7662C165.232 19.6067 165.167 19.4237 165.082 19.2173C164.998 19.0015 164.89 18.842 164.758 18.7387C164.636 18.6261 164.477 18.5323 164.28 18.4572C164.092 18.3822 163.872 18.3446 163.618 18.3446C163.365 18.3446 163.14 18.3822 162.943 18.4572C162.755 18.5323 162.596 18.6261 162.464 18.7387C162.342 18.842 162.239 19.0015 162.155 19.2173C162.07 19.4237 162.005 19.6067 161.958 19.7662C161.911 19.9257 161.878 20.1556 161.859 20.4559C161.84 20.7561 161.826 20.9954 161.817 21.1737C161.817 21.3426 161.817 21.6006 161.817 21.9478V27.3525C161.817 27.6997 161.817 27.9624 161.817 28.1407C161.826 28.3096 161.84 28.5442 161.859 28.8445C161.878 29.1447 161.911 29.3746 161.958 29.5341C162.005 29.6936 162.07 29.8813 162.155 30.0971C162.239 30.3035 162.342 30.4631 162.464 30.5757C162.596 30.6789 162.755 30.768 162.943 30.8431Z" fill="#130400" fill-opacity="0.44"/>
    <path d="M171.979 33.658V15.6423H175.582V17.5846C176.117 17.0967 176.553 16.726 176.891 16.4727C177.229 16.21 177.693 15.966 178.284 15.7408C178.885 15.5062 179.523 15.3889 180.199 15.3889C180.968 15.3889 181.592 15.6704 182.071 16.2334C182.549 16.7964 182.788 17.4861 182.788 18.3024V33.658H179.185V20.1462C179.185 19.5175 179.096 19.0625 178.918 18.781C178.739 18.4901 178.378 18.3446 177.834 18.3446C177.524 18.3446 177.215 18.4103 176.905 18.5417C176.605 18.6637 176.38 18.781 176.229 18.8936C176.079 18.9968 175.864 19.1657 175.582 19.4003V33.658H171.979Z" fill="#130400" fill-opacity="0.44"/>
    <path d="M191.036 33.9114C190.164 33.9114 189.403 33.7613 188.756 33.461C188.118 33.1607 187.607 32.7713 187.222 32.2928C186.847 31.8049 186.542 31.1856 186.307 30.4349C186.072 29.6749 185.908 28.9195 185.814 28.1689C185.73 27.4088 185.678 26.5268 185.66 25.5228C185.631 24.7346 185.631 23.9464 185.66 23.1582C185.688 22.2199 185.749 21.3895 185.843 20.667C185.946 19.9351 186.119 19.2267 186.363 18.5417C186.607 17.8567 186.922 17.2937 187.306 16.8527C187.7 16.4117 188.212 16.0598 188.84 15.7971C189.479 15.525 190.22 15.3889 191.064 15.3889C191.834 15.3889 192.509 15.4921 193.091 15.6986C193.682 15.8956 194.17 16.2006 194.555 16.6134C194.949 17.0169 195.273 17.4673 195.526 17.9646C195.789 18.4619 195.986 19.0671 196.117 19.7803C196.249 20.484 196.338 21.1784 196.385 21.8633C196.441 22.5483 196.469 23.3365 196.469 24.2279V24.6502H189.263V25.5509C189.263 25.6729 189.263 25.8653 189.263 26.128C189.244 26.4752 189.239 26.8365 189.249 27.2118C189.267 27.5777 189.286 27.939 189.305 28.2955C189.324 28.6521 189.375 28.9946 189.46 29.323C189.544 29.642 189.647 29.9235 189.769 30.1675C189.891 30.4115 190.06 30.6038 190.276 30.7446C190.501 30.8853 190.764 30.9557 191.064 30.9557C191.44 30.9557 191.749 30.8853 191.993 30.7446C192.237 30.5944 192.416 30.3739 192.528 30.083C192.65 29.7922 192.735 29.5013 192.781 29.2104C192.828 28.9195 192.857 28.5536 192.866 28.1126V27.3525H196.441V28.0703C196.356 29.9939 195.883 31.4483 195.019 32.4335C194.156 33.4188 192.828 33.9114 191.036 33.9114ZM189.263 22.8486H192.838V21.7648C192.828 21.2863 192.8 20.8687 192.753 20.5122C192.706 20.1556 192.622 19.799 192.5 19.4425C192.387 19.0859 192.209 18.8138 191.965 18.6261C191.721 18.4385 191.421 18.3446 191.064 18.3446C190.698 18.3446 190.389 18.4432 190.135 18.6402C189.891 18.8373 189.708 19.1234 189.586 19.4988C189.474 19.8647 189.394 20.226 189.347 20.5825C189.3 20.9391 189.272 21.366 189.263 21.8633V22.8486Z" fill="#130400" fill-opacity="0.44"/>
    </svg>
    