<svg width="60" height="60" viewBox="0 0 60 60" fill="none" xmlns="http://www.w3.org/2000/svg">
    <path d="M22.5 5.625H11.25C8.1434 5.625 5.625 8.1434 5.625 11.25V22.5C5.625 25.6066 8.1434 28.125 11.25 28.125H22.5C25.6066 28.125 28.125 25.6066 28.125 22.5V11.25C28.125 8.1434 25.6066 5.625 22.5 5.625Z" fill="#FF7251"/>
    <path d="M48.75 5.625H37.5C34.3934 5.625 31.875 8.1434 31.875 11.25V22.5C31.875 25.6066 34.3934 28.125 37.5 28.125H48.75C51.8566 28.125 54.375 25.6066 54.375 22.5V11.25C54.375 8.1434 51.8566 5.625 48.75 5.625Z" fill="#FF7251"/>
    <path d="M22.5 31.875H11.25C8.1434 31.875 5.625 34.3934 5.625 37.5V48.75C5.625 51.8566 8.1434 54.375 11.25 54.375H22.5C25.6066 54.375 28.125 51.8566 28.125 48.75V37.5C28.125 34.3934 25.6066 31.875 22.5 31.875Z" fill="#FF7251"/>
    <path d="M43.125 54.375C49.3382 54.375 54.375 49.3382 54.375 43.125C54.375 36.9118 49.3382 31.875 43.125 31.875C36.9118 31.875 31.875 36.9118 31.875 43.125C31.875 49.3382 36.9118 54.375 43.125 54.375Z" fill="#FF7251"/>
    </svg>