<svg width="19" height="19" viewBox="0 0 19 19" fill="none" xmlns="http://www.w3.org/2000/svg">
    <g clip-path="url(#clip0_225_5310)">
        <path d="M13.1758 7.25791L15.3325 4.90911L13.1758 2.5603" stroke="#130400"
            stroke-width="1.42352" stroke-linecap="round" stroke-linejoin="round" />
        <path
            d="M7.4247 14.3044C6.28072 14.3044 5.1836 13.8095 4.37468 12.9285C3.56577 12.0475 3.11133 10.8527 3.11133 9.60679C3.11133 8.36091 3.56577 7.16605 4.37468 6.28508C5.1836 5.40411 6.28072 4.90918 7.4247 4.90918H15.3325M12.457 15.8703H13.8947C14.0854 15.8703 14.2683 15.7878 14.4031 15.641C14.5379 15.4941 14.6136 15.295 14.6136 15.0873V14.3044C14.6136 14.0968 14.5379 13.8976 14.4031 13.7508C14.2683 13.604 14.0854 13.5215 13.8947 13.5215H12.457V11.1727H14.6136M10.3003 11.1727V15.8703"
            stroke="#130400" stroke-width="1.42352" stroke-linecap="round" stroke-linejoin="round" />
    </g>
    <defs>
        <clipPath id="clip0_225_5310">
            <rect width="17.2535" height="18.7904" fill="white"
                transform="translate(0.955078 0.211426)" />
        </clipPath>
    </defs>
</svg>