<svg width="60" height="60" viewBox="0 0 60 60" fill="none" xmlns="http://www.w3.org/2000/svg">
    <g clip-path="url(#clip0_225_6458)">
    <path d="M29.9884 2.97168C13.453 3.04845 0 16.5633 0 33.098C0 38.1195 1.25897 43.0698 3.63969 47.4562V39.4913C3.63969 38.0233 4.16217 36.6617 5.07804 35.4936C5.00224 34.6992 4.96321 33.8997 4.96321 33.098C4.96321 19.2871 16.1996 7.99912 29.9884 7.935C43.7999 7.9989 55.0364 19.2871 55.0364 33.098C55.0364 33.9859 54.9872 34.8706 54.8943 35.7494C55.6902 36.8586 56.1397 38.1296 56.1397 39.4913V47.8602C58.6646 43.3752 60.0001 38.2737 60.0001 33.098C60 16.5633 46.547 3.04845 29.9884 2.97168Z" fill="#FF7251"/>
    <path d="M5.48827 38.2052C5.36154 38.6205 5.29407 39.0506 5.29407 39.4916V47.1682V50.7414C5.29407 54.2134 9.4291 57.0282 14.5303 57.0282H18.4191V33.2048H14.5303C10.0769 33.2048 6.36078 35.3499 5.48827 38.2052Z" fill="#FF7251"/>
    <path d="M54.4851 50.7416V47.0435V39.4918C54.4851 39.2208 54.457 38.9541 54.408 38.6921C53.8306 35.5977 49.9516 33.2051 45.249 33.2051H41.3601V57.0284H45.249C50.3502 57.0284 54.4851 54.2136 54.4851 50.7416Z" fill="#FF7251"/>
    </g>
    <defs>
    <clipPath id="clip0_225_6458">
    <rect width="60" height="60" fill="white"/>
    </clipPath>
    </defs>
    </svg>