<svg width="38" height="38" viewBox="0 0 38 38" fill="none" xmlns="http://www.w3.org/2000/svg">
    <g clip-path="url(#clip0_53_862)">
        <path
            d="M11.5781 19C11.5781 13.2028 15.7326 8.37663 21.2266 7.3343C20.5053 7.19744 19.7612 7.125 19 7.125C12.4417 7.125 7.125 12.4416 7.125 19C7.125 25.5585 12.4417 30.8751 19 30.8751C19.7612 30.8751 20.5053 30.8026 21.2266 30.6658C15.7326 29.6235 11.5781 24.7973 11.5781 19Z"
            fill="#CEE1F2" />
        <path
            d="M3.70338 23.8454C3.21591 22.2727 2.96876 20.6423 2.96876 18.9998C2.96876 10.0104 10.0104 2.96876 18.9998 2.96876C24.4849 2.96876 28.981 5.35245 31.8075 9.29282C32.2267 9.87722 33.0048 10.0769 33.6535 9.767C34.3638 9.42767 34.7413 8.55723 34.3754 7.78179L32.7295 1.81169C32.5117 1.02125 31.6941 0.557311 30.9041 0.775144C30.1138 0.993051 29.6497 1.81035 29.8676 2.60064L30.0887 3.40294C26.0749 0.528068 21.6818 0 18.9998 0C8.34571 0 0 8.34571 0 18.9998C0 20.9406 0.291978 22.8666 0.867621 24.7243C1.11032 25.5073 1.94187 25.9454 2.72488 25.7027C3.50804 25.46 3.946 24.6285 3.70338 23.8454Z"
            fill="#9B2948" />
        <path
            d="M8.13233 35.3994L7.91123 34.5972C11.925 37.4721 16.3182 38.0001 19.0002 38.0001C29.6542 38.0001 37.9999 29.6544 37.9999 19.0004C37.9999 17.0595 37.708 15.1335 37.1323 13.2759C36.8895 12.4928 36.0584 12.0547 35.2751 12.2974C34.492 12.5401 34.054 13.3717 34.2966 14.1547C34.784 15.7275 35.0312 17.3578 35.0312 19.0003C35.0312 27.9896 27.9895 35.0313 19.0002 35.0313C15.9112 35.0313 10.1397 34.2097 6.19239 28.7072C5.7732 28.1228 4.99531 27.923 4.34642 28.2331C3.69744 28.5431 3.36413 29.2737 3.55532 29.9671L5.27044 36.1885C5.48835 36.9788 6.30558 37.4428 7.09594 37.2249C7.88622 37.007 8.35031 36.1897 8.13233 35.3994Z"
            fill="#9B2948" />
        <path
            d="M19.0001 32.3595C26.3664 32.3595 32.3595 26.3664 32.3595 19.0001C32.3595 11.6337 26.3664 5.64062 19.0001 5.64062C11.6337 5.64062 5.64062 11.6337 5.64062 19.0001C5.64062 26.3664 11.6337 32.3595 19.0001 32.3595ZM19.0001 8.60939C24.7295 8.60939 29.3907 13.2706 29.3907 19.0001C29.3907 24.7295 24.7295 29.3907 19.0001 29.3907C13.2706 29.3907 8.60939 24.7295 8.60939 19.0001C8.60939 13.2706 13.2706 8.60939 19.0001 8.60939Z"
            fill="#FF7251" />
        <path
            d="M15.8532 24.2461L20.0497 20.0496C20.328 19.7712 20.4844 19.3937 20.4844 19V13.0625C20.4844 12.2427 19.8198 11.5781 19 11.5781C18.1802 11.5781 17.5156 12.2427 17.5156 13.0625V18.3852L13.7538 22.1469C13.1742 22.7265 13.1742 23.6664 13.7538 24.2461C14.3336 24.8257 15.2734 24.8257 15.8532 24.2461Z"
            fill="#FF7251" />
    </g>
    <defs>
        <clipPath id="clip0_53_862">
            <rect width="38" height="38" fill="white" />
        </clipPath>
    </defs>
</svg>
    