<svg width="37" height="36" viewBox="0 0 37 36" fill="none" xmlns="http://www.w3.org/2000/svg">
    <g clip-path="url(#clip0_53_106)">
        <path
            d="M16.7812 18.2812V7.03125C16.7812 4.67086 18.2358 2.65134 20.2969 1.81673C19.6453 1.55285 18.9337 1.40625 18.1875 1.40625C15.0809 1.40625 12.5625 3.92463 12.5625 7.03125V18.2812C12.5625 21.3879 15.0809 23.9062 18.1875 23.9062C18.9337 23.9062 19.6453 23.7596 20.2969 23.4958C18.2358 22.6612 16.7812 20.6416 16.7812 18.2812Z"
            fill="#CEE1F2" />
        <path
            d="M30.8438 18.2812C30.8438 17.5046 30.2142 16.875 29.4375 16.875C28.6608 16.875 28.0312 17.5046 28.0312 18.2812C28.0312 23.7091 23.6153 28.125 18.1875 28.125C12.7597 28.125 8.34375 23.7091 8.34375 18.2812C8.34375 17.5046 7.71417 16.875 6.9375 16.875C6.16083 16.875 5.53125 17.5046 5.53125 18.2812C5.53125 24.7846 10.462 30.1571 16.7812 30.859V33.1875H12.5625C11.7858 33.1875 11.1562 33.8171 11.1562 34.5938C11.1562 35.3704 11.7858 36 12.5625 36H23.8125C24.5892 36 25.2188 35.3704 25.2188 34.5938C25.2188 33.8171 24.5892 33.1875 23.8125 33.1875H19.5938V30.859C25.913 30.1571 30.8438 24.7846 30.8438 18.2812Z"
            fill="#FF7251" />
        <path
            d="M18.1875 25.3125C14.3105 25.3125 11.1562 22.1583 11.1562 18.2812V7.03125C11.1562 3.15422 14.3105 0 18.1875 0C22.0645 0 25.2188 3.15422 25.2188 7.03125V18.2812C25.2188 22.1583 22.0645 25.3125 18.1875 25.3125ZM18.1875 2.8125C15.8613 2.8125 13.9688 4.70503 13.9688 7.03125V18.2812C13.9688 20.6075 15.8613 22.5 18.1875 22.5C20.5137 22.5 22.4062 20.6075 22.4062 18.2812V7.03125C22.4062 4.70503 20.5137 2.8125 18.1875 2.8125Z"
            fill="#FF7251" />
        <path
            d="M6.9375 14.0625C6.16083 14.0625 5.53125 13.4329 5.53125 12.6562V9.84375C5.53125 9.06708 6.16083 8.4375 6.9375 8.4375C7.71417 8.4375 8.34375 9.06708 8.34375 9.84375V12.6562C8.34375 13.4329 7.71417 14.0625 6.9375 14.0625Z"
            fill="#9B2948" />
        <path
            d="M1.59375 16.875C0.817078 16.875 0.1875 16.2454 0.1875 15.4688V7.03125C0.1875 6.25458 0.817078 5.625 1.59375 5.625C2.37042 5.625 3 6.25458 3 7.03125V15.4688C3 16.2454 2.37042 16.875 1.59375 16.875Z"
            fill="#9B2948" />
        <path
            d="M29.4375 14.0625C28.6608 14.0625 28.0312 13.4329 28.0312 12.6562V9.84375C28.0312 9.06708 28.6608 8.4375 29.4375 8.4375C30.2142 8.4375 30.8438 9.06708 30.8438 9.84375V12.6562C30.8438 13.4329 30.2142 14.0625 29.4375 14.0625Z"
            fill="#9B2948" />
        <path
            d="M34.7812 16.875C34.0046 16.875 33.375 16.2454 33.375 15.4688V7.03125C33.375 6.25458 34.0046 5.625 34.7812 5.625C35.5579 5.625 36.1875 6.25458 36.1875 7.03125V15.4688C36.1875 16.2454 35.5579 16.875 34.7812 16.875Z"
            fill="#9B2948" />
    </g>
    <defs>
        <clipPath id="clip0_53_106">
            <rect width="36" height="36" fill="white" transform="translate(0.1875)" />
        </clipPath>
    </defs>
</svg>
    