<svg width="60" height="60" viewBox="0 0 60 60" fill="none" xmlns="http://www.w3.org/2000/svg">
    <g clip-path="url(#clip0_225_6493)">
    <path d="M52.5 25C52.5 24.337 52.2366 23.7011 51.7678 23.2322C51.2989 22.7634 50.663 22.5 50 22.5C49.337 22.5 48.7011 22.7634 48.2322 23.2322C47.7634 23.7011 47.5 24.337 47.5 25C47.5 29.6413 45.6563 34.0925 42.3744 37.3744C39.0925 40.6563 34.6413 42.5 30 42.5C25.3587 42.5 20.9075 40.6563 17.6256 37.3744C14.3437 34.0925 12.5 29.6413 12.5 25C12.5 24.337 12.2366 23.7011 11.7678 23.2322C11.2989 22.7634 10.663 22.5 10 22.5C9.33696 22.5 8.70107 22.7634 8.23223 23.2322C7.76339 23.7011 7.5 24.337 7.5 25C7.5075 30.5315 9.55013 35.8669 13.2386 39.9892C16.927 44.1115 22.0033 46.7324 27.5 47.3525V55H22.5C21.837 55 21.2011 55.2634 20.7322 55.7322C20.2634 56.2011 20 56.837 20 57.5C20 58.163 20.2634 58.7989 20.7322 59.2678C21.2011 59.7366 21.837 60 22.5 60H37.5C38.163 60 38.7989 59.7366 39.2678 59.2678C39.7366 58.7989 40 58.163 40 57.5C40 56.837 39.7366 56.2011 39.2678 55.7322C38.7989 55.2634 38.163 55 37.5 55H32.5V47.3525C37.9967 46.7324 43.073 44.1115 46.7614 39.9892C50.4499 35.8669 52.4925 30.5315 52.5 25Z" fill="#FF7251"/>
    <path d="M30 37.5C33.314 37.496 36.4911 36.1778 38.8345 33.8344C41.1778 31.4911 42.496 28.314 42.5 25V12.5C42.5 9.18479 41.183 6.00537 38.8388 3.66117C36.4946 1.31696 33.3152 0 30 0C26.6848 0 23.5054 1.31696 21.1612 3.66117C18.817 6.00537 17.5 9.18479 17.5 12.5V25C17.504 28.314 18.8222 31.4911 21.1655 33.8344C23.5089 36.1778 26.686 37.496 30 37.5Z" fill="#FF7251"/>
    </g>
    <defs>
    <clipPath id="clip0_225_6493">
    <rect width="60" height="60" fill="white"/>
    </clipPath>
    </defs>
    </svg>