<svg width="75" height="75" viewBox="0 0 75 75" fill="none" xmlns="http://www.w3.org/2000/svg">
    <path d="M61.4542 33.0016L51.2932 27.1328L40.8907 37.5353L51.2925 47.9371L61.4887 42.0488C63.0787 41.0828 64.0275 39.3953 64.0275 37.5353C64.0275 35.6753 63.078 33.9878 61.4542 33.0016Z" fill="#FFCE00"/>
    <path d="M40.8908 37.5353L12.5565 8.99707C11.571 9.98257 10.9725 11.3198 10.9725 12.7981V62.1856C10.9725 63.6638 11.571 65.0011 12.5565 65.9873L40.8908 37.5353Z" fill="url(#paint0_linear_53_171)"/>
    <path d="M40.8908 37.5352L51.2933 27.1327L51.3098 27.1162L37.3718 19.0912L18.9983 8.2927C17.3438 7.27195 15.3375 7.2367 13.6478 8.18695C13.2608 8.43295 12.9083 8.6797 12.5565 8.9962L40.8908 37.5352Z" fill="#00F076"/>
    <path d="M12.5565 65.9864C12.9083 66.3029 13.2608 66.5497 13.6478 66.7957C14.4923 67.2532 15.3728 67.4999 16.2525 67.4999C17.2028 67.4999 18.1178 67.2187 18.963 66.7259L37.371 55.9792L51.309 47.9542L51.2925 47.9377L40.8908 37.5352L12.5565 65.9864Z" fill="#F63448"/>
    <defs>
    <linearGradient id="paint0_linear_53_171" x1="-1.69047" y1="51.7396" x2="26.8043" y2="23.2441" gradientUnits="userSpaceOnUse">
    <stop stop-color="#00E2FF"/>
    <stop offset="1" stop-color="#00C5FF"/>
    </linearGradient>
    </defs>
    </svg>
    