<svg width="38" height="38" viewBox="0 0 38 38" fill="none" xmlns="http://www.w3.org/2000/svg">
    <g clip-path="url(#clip0_53_704)">
    <path d="M6.16016 19.1675C6.07443 10.4711 12.7209 3.207 21.3353 2.09375C20.5724 1.99633 19.7931 1.94531 19 1.94531C9.30391 1.94531 1.39197 9.70989 1.48519 19.1675L1.48438 36.0547L1.77472 35.772C2.98552 34.593 4.54968 33.8433 6.15949 33.5669L6.16016 19.1675Z" fill="#CEE1F2"/>
    <path d="M1.48409 37.5C1.29282 37.5 1.1 37.464 0.916312 37.3899C0.361675 37.1662 7.24025e-06 36.6392 7.24025e-06 36.0546L0.000823647 19.1745C-0.0460826 14.2174 1.91188 9.53682 5.51453 5.99515C9.11912 2.45153 13.9083 0.5 19 0.5C24.1296 0.5 28.9262 2.43824 32.5062 5.95772C36.0976 9.4884 38.0484 14.1847 37.9991 19.1815C37.9506 24.1023 35.941 28.7126 32.3404 32.1631C28.749 35.6048 23.9867 37.5 18.9302 37.5C18.9242 37.5 18.9178 37.5 18.9119 37.5C15.9208 37.5001 13.0654 36.8469 10.4251 35.5585C7.90215 34.3274 4.84768 34.8239 2.82433 36.794L2.53398 37.0767C2.2501 37.3532 1.87032 37.5 1.48409 37.5ZM7.51592 31.997C8.95739 31.997 10.4076 32.3166 11.7552 32.9742C13.9787 34.0592 16.3871 34.6094 18.9133 34.6094H18.9287C27.7251 34.61 34.9465 27.6779 35.0305 19.1536C35.0722 14.9342 33.4266 10.9702 30.397 7.99185C27.3787 5.0247 23.3313 3.39062 19 3.39062C14.7067 3.39062 10.6665 5.03799 7.62376 8.02928C4.58116 11.0204 2.92823 14.9711 2.9695 19.1536C2.9695 19.1583 2.96957 19.163 2.96957 19.1676L2.96891 33.1198C4.3755 32.3792 5.94033 31.997 7.51592 31.997Z" fill="#FF7251"/>
    <path d="M14.5469 19C14.5469 19.9978 13.7161 20.8066 12.6914 20.8066C11.6667 20.8066 10.8359 19.9978 10.8359 19C10.8359 18.0022 11.6667 17.1934 12.6914 17.1934C13.7161 17.1934 14.5469 18.0022 14.5469 19ZM19.0742 17.1934C18.0495 17.1934 17.2188 18.0022 17.2188 19C17.2188 19.9978 18.0495 20.8066 19.0742 20.8066C20.099 20.8066 20.9297 19.9978 20.9297 19C20.9297 18.0022 20.099 17.1934 19.0742 17.1934ZM25.457 17.1934C24.4323 17.1934 23.6016 18.0022 23.6016 19C23.6016 19.9978 24.4323 20.8066 25.457 20.8066C26.4818 20.8066 27.3125 19.9978 27.3125 19C27.3125 18.0022 26.4818 17.1934 25.457 17.1934Z" fill="#9B2948"/>
    </g>
    <defs>
    <clipPath id="clip0_53_704">
    <rect width="38" height="37" fill="white" transform="translate(0 0.5)"/>
    </clipPath>
    </defs>
    </svg>
    