<svg width="59" height="59" viewBox="0 0 59 59" fill="none" xmlns="http://www.w3.org/2000/svg">
    <g clip-path="url(#clip0_53_180)">
    <path d="M22.7394 0H4.30193C1.92973 0 0 1.92973 0 4.30193V15.3644C0 17.7371 1.92973 19.6668 4.30193 19.6668H22.7394C25.1121 19.6668 27.0418 17.7371 27.0418 15.3644V4.30193C27.0418 1.92973 25.1121 0 22.7394 0Z" fill="#FF7251"/>
    <path d="M22.7394 24.5833H4.30193C1.92973 24.5833 0 26.513 0 28.8856V54.6981C0 57.0703 1.92973 59.0001 4.30193 59.0001H22.7394C25.1121 59.0001 27.0418 57.0703 27.0418 54.6981V28.8856C27.0418 26.513 25.1121 24.5833 22.7394 24.5833Z" fill="#FF7251"/>
    <path d="M54.6981 39.3333H36.2606C33.8879 39.3333 31.9582 41.263 31.9582 43.6356V54.6981C31.9582 57.0703 33.8879 59.0001 36.2606 59.0001H54.6981C57.0703 59.0001 59 57.0703 59 54.6981V43.6356C59 41.263 57.0703 39.3333 54.6981 39.3333Z" fill="#FF7251"/>
    <path d="M54.6981 0H36.2606C33.8879 0 31.9582 1.92973 31.9582 4.30193V30.1144C31.9582 32.4871 33.8879 34.4168 36.2606 34.4168H54.6981C57.0703 34.4168 59 32.4871 59 30.1144V4.30193C59 1.92973 57.0703 0 54.6981 0Z" fill="#FF7251"/>
    </g>
    <defs>
    <clipPath id="clip0_53_180">
    <rect width="59" height="59" fill="white"/>
    </clipPath>
    </defs>
    </svg>
    